<svg width="406" height="406" viewBox="0 0 406 406" fill="none" xmlns="http://www.w3.org/2000/svg">
<rect width="406" height="406" rx="40" fill="url(#paint0_diamond)"/>
<path d="M130.281 223.797C130.281 200.078 135.578 181.188 146.172 167.125C156.859 153.062 171.438 146.031 189.906 146.031C204.719 146.031 216.953 151.562 226.609 162.625V85H267.391V301H230.688L228.719 284.828C218.594 297.484 205.562 303.812 189.625 303.812C171.719 303.812 157.328 296.781 146.453 282.719C135.672 268.562 130.281 248.922 130.281 223.797ZM170.922 226.75C170.922 241 173.406 251.922 178.375 259.516C183.344 267.109 190.562 270.906 200.031 270.906C212.594 270.906 221.453 265.609 226.609 255.016V194.969C221.547 184.375 212.781 179.078 200.312 179.078C180.719 179.078 170.922 194.969 170.922 226.75Z" fill="black" fill-opacity="0.58"/>
<defs>
<radialGradient id="paint0_diamond" cx="0" cy="0" r="1" gradientUnits="userSpaceOnUse" gradientTransform="translate(203 203) rotate(45) scale(313.248)">
<stop stop-color="#A7A5EC"/>
<stop offset="1" stop-color="#6C80EA"/>
</radialGradient>
</defs>
</svg>
